
<svg version="1.1"
     width="616.0" height="436.0"
     xmlns="http://www.w3.org/2000/svg">

    <g transform="translate(24.0 24.0)">
        
        <rect x="0.0" y="0.0" width="568.0" height="8.0"
        fill="black" stroke="black" stroke-width="0.1"/>
        
        <rect x="0.0" y="380.0" width="568.0" height="8.0"
        fill="black" stroke="black" stroke-width="0.1"/>
        
        <rect x="0.0" y="0.0" width="8.0" height="388.0"
        fill="black" stroke="black" stroke-width="0.1"/>
        
        <rect x="560.0" y="0.0" width="8.0" height="168.0"
        fill="black" stroke="black" stroke-width="0.1"/>
        
        <rect x="560.0" y="200.0" width="8.0" height="188.0"
        fill="black" stroke="black" stroke-width="0.1"/>
        
        <rect x="20.0" y="20.0" width="148.0" height="8.0"
        fill="black" stroke="black" stroke-width="0.1"/>
        
        <rect x="180.0" y="20.0" width="88.0" height="8.0"
        fill="black" stroke="black" stroke-width="0.1"/>
        
        <rect x="320.0" y="20.0" width="108.0" height="8.0"
        fill="black" stroke="black" stroke-width="0.1"/>
        
        <rect x="440.0" y="20.0" width="108.0" height="8.0"
        fill="black" stroke="black" stroke-width="0.1"/>
        
        <rect x="40.0" y="40.0" width="108.0" height="8.0"
        fill="black" stroke="black" stroke-width="0.1"/>
        
        <rect x="180.0" y="40.0" width="68.0" height="8.0"
        fill="black" stroke="black" stroke-width="0.1"/>
        
        <rect x="300.0" y="40.0" width="128.0" height="8.0"
        fill="black" stroke="black" stroke-width="0.1"/>
        
        <rect x="440.0" y="40.0" width="88.0" height="8.0"
        fill="black" stroke="black" stroke-width="0.1"/>
        
        <rect x="60.0" y="60.0" width="108.0" height="8.0"
        fill="black" stroke="black" stroke-width="0.1"/>
        
        <rect x="180.0" y="60.0" width="88.0" height="8.0"
        fill="black" stroke="black" stroke-width="0.1"/>
        
        <rect x="320.0" y="60.0" width="88.0" height="8.0"
        fill="black" stroke="black" stroke-width="0.1"/>
        
        <rect x="440.0" y="60.0" width="68.0" height="8.0"
        fill="black" stroke="black" stroke-width="0.1"/>
        
        <rect x="80.0" y="80.0" width="208.0" height="8.0"
        fill="black" stroke="black" stroke-width="0.1"/>
        
        <rect x="340.0" y="80.0" width="48.0" height="8.0"
        fill="black" stroke="black" stroke-width="0.1"/>
        
        <rect x="460.0" y="80.0" width="28.0" height="8.0"
        fill="black" stroke="black" stroke-width="0.1"/>
        
        <rect x="100.0" y="100.0" width="68.0" height="8.0"
        fill="black" stroke="black" stroke-width="0.1"/>
        
        <rect x="200.0" y="100.0" width="68.0" height="8.0"
        fill="black" stroke="black" stroke-width="0.1"/>
        
        <rect x="320.0" y="100.0" width="48.0" height="8.0"
        fill="black" stroke="black" stroke-width="0.1"/>
        
        <rect x="440.0" y="100.0" width="28.0" height="8.0"
        fill="black" stroke="black" stroke-width="0.1"/>
        
        <rect x="120.0" y="120.0" width="28.0" height="8.0"
        fill="black" stroke="black" stroke-width="0.1"/>
        
        <rect x="160.0" y="120.0" width="48.0" height="8.0"
        fill="black" stroke="black" stroke-width="0.1"/>
        
        <rect x="220.0" y="120.0" width="28.0" height="8.0"
        fill="black" stroke="black" stroke-width="0.1"/>
        
        <rect x="260.0" y="120.0" width="88.0" height="8.0"
        fill="black" stroke="black" stroke-width="0.1"/>
        
        <rect x="360.0" y="120.0" width="28.0" height="8.0"
        fill="black" stroke="black" stroke-width="0.1"/>
        
        <rect x="420.0" y="120.0" width="28.0" height="8.0"
        fill="black" stroke="black" stroke-width="0.1"/>
        
        <rect x="160.0" y="140.0" width="68.0" height="8.0"
        fill="black" stroke="black" stroke-width="0.1"/>
        
        <rect x="240.0" y="140.0" width="58.0" height="8.0"
        fill="black" stroke="black" stroke-width="0.1"/>
        
        <rect x="310.0" y="140.0" width="98.0" height="8.0"
        fill="black" stroke="black" stroke-width="0.1"/>
        
        <rect x="60.0" y="160.0" width="48.0" height="8.0"
        fill="black" stroke="black" stroke-width="0.1"/>
        
        <rect x="440.0" y="170.0" width="48.0" height="8.0"
        fill="black" stroke="black" stroke-width="0.1"/>
        
        <rect x="520.0" y="170.0" width="28.0" height="8.0"
        fill="black" stroke="black" stroke-width="0.1"/>
        
        <rect x="60.0" y="180.0" width="68.0" height="8.0"
        fill="black" stroke="black" stroke-width="0.1"/>
        
        <rect x="460.0" y="190.0" width="68.0" height="8.0"
        fill="black" stroke="black" stroke-width="0.1"/>
        
        <rect x="0.0" y="200.0" width="128.0" height="8.0"
        fill="black" stroke="black" stroke-width="0.1"/>
        
        <rect x="440.0" y="210.0" width="108.0" height="8.0"
        fill="black" stroke="black" stroke-width="0.1"/>
        
        <rect x="20.0" y="220.0" width="28.0" height="8.0"
        fill="black" stroke="black" stroke-width="0.1"/>
        
        <rect x="80.0" y="220.0" width="48.0" height="8.0"
        fill="black" stroke="black" stroke-width="0.1"/>
        
        <rect x="460.0" y="230.0" width="48.0" height="8.0"
        fill="black" stroke="black" stroke-width="0.1"/>
        
        <rect x="120.0" y="240.0" width="48.0" height="8.0"
        fill="black" stroke="black" stroke-width="0.1"/>
        
        <rect x="180.0" y="240.0" width="118.0" height="8.0"
        fill="black" stroke="black" stroke-width="0.1"/>
        
        <rect x="310.0" y="240.0" width="78.0" height="8.0"
        fill="black" stroke="black" stroke-width="0.1"/>
        
        <rect x="460.0" y="250.0" width="28.0" height="8.0"
        fill="black" stroke="black" stroke-width="0.1"/>
        
        <rect x="100.0" y="260.0" width="48.0" height="8.0"
        fill="black" stroke="black" stroke-width="0.1"/>
        
        <rect x="220.0" y="260.0" width="48.0" height="8.0"
        fill="black" stroke="black" stroke-width="0.1"/>
        
        <rect x="300.0" y="260.0" width="68.0" height="8.0"
        fill="black" stroke="black" stroke-width="0.1"/>
        
        <rect x="420.0" y="260.0" width="28.0" height="8.0"
        fill="black" stroke="black" stroke-width="0.1"/>
        
        <rect x="80.0" y="280.0" width="48.0" height="8.0"
        fill="black" stroke="black" stroke-width="0.1"/>
        
        <rect x="200.0" y="280.0" width="48.0" height="8.0"
        fill="black" stroke="black" stroke-width="0.1"/>
        
        <rect x="320.0" y="280.0" width="48.0" height="8.0"
        fill="black" stroke="black" stroke-width="0.1"/>
        
        <rect x="440.0" y="280.0" width="28.0" height="8.0"
        fill="black" stroke="black" stroke-width="0.1"/>
        
        <rect x="60.0" y="300.0" width="88.0" height="8.0"
        fill="black" stroke="black" stroke-width="0.1"/>
        
        <rect x="180.0" y="300.0" width="48.0" height="8.0"
        fill="black" stroke="black" stroke-width="0.1"/>
        
        <rect x="300.0" y="300.0" width="88.0" height="8.0"
        fill="black" stroke="black" stroke-width="0.1"/>
        
        <rect x="420.0" y="300.0" width="68.0" height="8.0"
        fill="black" stroke="black" stroke-width="0.1"/>
        
        <rect x="60.0" y="320.0" width="188.0" height="8.0"
        fill="black" stroke="black" stroke-width="0.1"/>
        
        <rect x="280.0" y="320.0" width="228.0" height="8.0"
        fill="black" stroke="black" stroke-width="0.1"/>
        
        <rect x="40.0" y="340.0" width="248.0" height="8.0"
        fill="black" stroke="black" stroke-width="0.1"/>
        
        <rect x="300.0" y="340.0" width="88.0" height="8.0"
        fill="black" stroke="black" stroke-width="0.1"/>
        
        <rect x="420.0" y="340.0" width="108.0" height="8.0"
        fill="black" stroke="black" stroke-width="0.1"/>
        
        <rect x="20.0" y="360.0" width="128.0" height="8.0"
        fill="black" stroke="black" stroke-width="0.1"/>
        
        <rect x="160.0" y="360.0" width="88.0" height="8.0"
        fill="black" stroke="black" stroke-width="0.1"/>
        
        <rect x="280.0" y="360.0" width="128.0" height="8.0"
        fill="black" stroke="black" stroke-width="0.1"/>
        
        <rect x="420.0" y="360.0" width="128.0" height="8.0"
        fill="black" stroke="black" stroke-width="0.1"/>
        
        <rect x="20.0" y="20.0" width="8.0" height="168.0"
        fill="black" stroke="black" stroke-width="0.1"/>
        
        <rect x="20.0" y="240.0" width="8.0" height="128.0"
        fill="black" stroke="black" stroke-width="0.1"/>
        
        <rect x="40.0" y="40.0" width="8.0" height="168.0"
        fill="black" stroke="black" stroke-width="0.1"/>
        
        <rect x="40.0" y="220.0" width="8.0" height="128.0"
        fill="black" stroke="black" stroke-width="0.1"/>
        
        <rect x="60.0" y="60.0" width="8.0" height="108.0"
        fill="black" stroke="black" stroke-width="0.1"/>
        
        <rect x="60.0" y="200.0" width="8.0" height="108.0"
        fill="black" stroke="black" stroke-width="0.1"/>
        
        <rect x="80.0" y="80.0" width="8.0" height="68.0"
        fill="black" stroke="black" stroke-width="0.1"/>
        
        <rect x="80.0" y="220.0" width="8.0" height="68.0"
        fill="black" stroke="black" stroke-width="0.1"/>
        
        <rect x="100.0" y="100.0" width="8.0" height="68.0"
        fill="black" stroke="black" stroke-width="0.1"/>
        
        <rect x="100.0" y="240.0" width="8.0" height="28.0"
        fill="black" stroke="black" stroke-width="0.1"/>
        
        <rect x="120.0" y="120.0" width="8.0" height="68.0"
        fill="black" stroke="black" stroke-width="0.1"/>
        
        <rect x="120.0" y="220.0" width="8.0" height="28.0"
        fill="black" stroke="black" stroke-width="0.1"/>
        
        <rect x="140.0" y="140.0" width="8.0" height="88.0"
        fill="black" stroke="black" stroke-width="0.1"/>
        
        <rect x="140.0" y="260.0" width="8.0" height="48.0"
        fill="black" stroke="black" stroke-width="0.1"/>
        
        <rect x="160.0" y="20.0" width="8.0" height="48.0"
        fill="black" stroke="black" stroke-width="0.1"/>
        
        <rect x="160.0" y="100.0" width="8.0" height="28.0"
        fill="black" stroke="black" stroke-width="0.1"/>
        
        <rect x="160.0" y="240.0" width="8.0" height="88.0"
        fill="black" stroke="black" stroke-width="0.1"/>
        
        <rect x="160.0" y="360.0" width="8.0" height="28.0"
        fill="black" stroke="black" stroke-width="0.1"/>
        
        <rect x="180.0" y="40.0" width="8.0" height="28.0"
        fill="black" stroke="black" stroke-width="0.1"/>
        
        <rect x="180.0" y="80.0" width="8.0" height="28.0"
        fill="black" stroke="black" stroke-width="0.1"/>
        
        <rect x="180.0" y="260.0" width="8.0" height="48.0"
        fill="black" stroke="black" stroke-width="0.1"/>
        
        <rect x="200.0" y="100.0" width="8.0" height="28.0"
        fill="black" stroke="black" stroke-width="0.1"/>
        
        <rect x="200.0" y="240.0" width="8.0" height="48.0"
        fill="black" stroke="black" stroke-width="0.1"/>
        
        <rect x="240.0" y="280.0" width="8.0" height="48.0"
        fill="black" stroke="black" stroke-width="0.1"/>
        
        <rect x="260.0" y="20.0" width="8.0" height="48.0"
        fill="black" stroke="black" stroke-width="0.1"/>
        
        <rect x="260.0" y="100.0" width="8.0" height="28.0"
        fill="black" stroke="black" stroke-width="0.1"/>
        
        <rect x="260.0" y="260.0" width="8.0" height="128.0"
        fill="black" stroke="black" stroke-width="0.1"/>
        
        <rect x="280.0" y="0.0" width="8.0" height="108.0"
        fill="black" stroke="black" stroke-width="0.1"/>
        
        <rect x="280.0" y="240.0" width="8.0" height="88.0"
        fill="black" stroke="black" stroke-width="0.1"/>
        
        <rect x="300.0" y="20.0" width="8.0" height="108.0"
        fill="black" stroke="black" stroke-width="0.1"/>
        
        <rect x="300.0" y="260.0" width="8.0" height="48.0"
        fill="black" stroke="black" stroke-width="0.1"/>
        
        <rect x="320.0" y="60.0" width="8.0" height="48.0"
        fill="black" stroke="black" stroke-width="0.1"/>
        
        <rect x="380.0" y="80.0" width="8.0" height="48.0"
        fill="black" stroke="black" stroke-width="0.1"/>
        
        <rect x="380.0" y="260.0" width="8.0" height="48.0"
        fill="black" stroke="black" stroke-width="0.1"/>
        
        <rect x="400.0" y="60.0" width="8.0" height="88.0"
        fill="black" stroke="black" stroke-width="0.1"/>
        
        <rect x="400.0" y="240.0" width="8.0" height="108.0"
        fill="black" stroke="black" stroke-width="0.1"/>
        
        <rect x="420.0" y="40.0" width="8.0" height="88.0"
        fill="black" stroke="black" stroke-width="0.1"/>
        
        <rect x="420.0" y="140.0" width="8.0" height="108.0"
        fill="black" stroke="black" stroke-width="0.1"/>
        
        <rect x="420.0" y="260.0" width="8.0" height="48.0"
        fill="black" stroke="black" stroke-width="0.1"/>
        
        <rect x="440.0" y="60.0" width="8.0" height="48.0"
        fill="black" stroke="black" stroke-width="0.1"/>
        
        <rect x="440.0" y="120.0" width="8.0" height="148.0"
        fill="black" stroke="black" stroke-width="0.1"/>
        
        <rect x="460.0" y="100.0" width="8.0" height="58.0"
        fill="black" stroke="black" stroke-width="0.1"/>
        
        <rect x="460.0" y="230.0" width="8.0" height="58.0"
        fill="black" stroke="black" stroke-width="0.1"/>
        
        <rect x="480.0" y="80.0" width="8.0" height="98.0"
        fill="black" stroke="black" stroke-width="0.1"/>
        
        <rect x="480.0" y="250.0" width="8.0" height="58.0"
        fill="black" stroke="black" stroke-width="0.1"/>
        
        <rect x="500.0" y="60.0" width="8.0" height="118.0"
        fill="black" stroke="black" stroke-width="0.1"/>
        
        <rect x="500.0" y="230.0" width="8.0" height="98.0"
        fill="black" stroke="black" stroke-width="0.1"/>
        
        <rect x="520.0" y="40.0" width="8.0" height="308.0"
        fill="black" stroke="black" stroke-width="0.1"/>
        
        <rect x="540.0" y="20.0" width="8.0" height="138.0"
        fill="black" stroke="black" stroke-width="0.1"/>
        
        <rect x="540.0" y="230.0" width="8.0" height="138.0"
        fill="black" stroke="black" stroke-width="0.1"/>
        
        </g>
        
</svg>

