
<?xml version="1.0" encoding="UTF-8" standalone="no"?>

<svg
   width="231.0mm"
   height="163.5mm"
   viewBox="0 0 231.0 163.5"
   version="1.1"
   xmlns="http://www.w3.org/2000/svg"
   xmlns:svg="http://www.w3.org/2000/svg">
   <g transform="translate(9.0 9.0)">
        
        <rect x="0.0" y="0.0" width="213.0" height="3.0"
        fill="black" stroke="black" stroke-width="0.1"/>
        
        <rect x="0.0" y="142.5" width="213.0" height="3.0"
        fill="black" stroke="black" stroke-width="0.1"/>
        
        <rect x="0.0" y="0.0" width="3.0" height="145.5"
        fill="black" stroke="black" stroke-width="0.1"/>
        
        <rect x="210.0" y="0.0" width="3.0" height="66.75"
        fill="black" stroke="black" stroke-width="0.1"/>
        
        <rect x="210.0" y="78.75" width="3.0" height="66.75"
        fill="black" stroke="black" stroke-width="0.1"/>
        
        <rect x="7.5" y="7.5" width="55.5" height="3.0"
        fill="black" stroke="black" stroke-width="0.1"/>
        
        <rect x="67.5" y="7.5" width="33.0" height="3.0"
        fill="black" stroke="black" stroke-width="0.1"/>
        
        <rect x="120.0" y="7.5" width="40.5" height="3.0"
        fill="black" stroke="black" stroke-width="0.1"/>
        
        <rect x="165.0" y="7.5" width="40.5" height="3.0"
        fill="black" stroke="black" stroke-width="0.1"/>
        
        <rect x="15.0" y="15.0" width="40.5" height="3.0"
        fill="black" stroke="black" stroke-width="0.1"/>
        
        <rect x="67.5" y="15.0" width="25.5" height="3.0"
        fill="black" stroke="black" stroke-width="0.1"/>
        
        <rect x="112.5" y="15.0" width="48.0" height="3.0"
        fill="black" stroke="black" stroke-width="0.1"/>
        
        <rect x="165.0" y="15.0" width="33.0" height="3.0"
        fill="black" stroke="black" stroke-width="0.1"/>
        
        <rect x="22.5" y="22.5" width="40.5" height="3.0"
        fill="black" stroke="black" stroke-width="0.1"/>
        
        <rect x="67.5" y="22.5" width="33.0" height="3.0"
        fill="black" stroke="black" stroke-width="0.1"/>
        
        <rect x="120.0" y="22.5" width="33.0" height="3.0"
        fill="black" stroke="black" stroke-width="0.1"/>
        
        <rect x="165.0" y="22.5" width="25.5" height="3.0"
        fill="black" stroke="black" stroke-width="0.1"/>
        
        <rect x="30.0" y="30.0" width="78.0" height="3.0"
        fill="black" stroke="black" stroke-width="0.1"/>
        
        <rect x="127.5" y="30.0" width="18.0" height="3.0"
        fill="black" stroke="black" stroke-width="0.1"/>
        
        <rect x="172.5" y="30.0" width="10.5" height="3.0"
        fill="black" stroke="black" stroke-width="0.1"/>
        
        <rect x="37.5" y="37.5" width="25.5" height="3.0"
        fill="black" stroke="black" stroke-width="0.1"/>
        
        <rect x="75.0" y="37.5" width="25.5" height="3.0"
        fill="black" stroke="black" stroke-width="0.1"/>
        
        <rect x="120.0" y="37.5" width="18.0" height="3.0"
        fill="black" stroke="black" stroke-width="0.1"/>
        
        <rect x="165.0" y="37.5" width="10.5" height="3.0"
        fill="black" stroke="black" stroke-width="0.1"/>
        
        <rect x="45.0" y="45.0" width="10.5" height="3.0"
        fill="black" stroke="black" stroke-width="0.1"/>
        
        <rect x="60.0" y="45.0" width="18.0" height="3.0"
        fill="black" stroke="black" stroke-width="0.1"/>
        
        <rect x="82.5" y="45.0" width="10.5" height="3.0"
        fill="black" stroke="black" stroke-width="0.1"/>
        
        <rect x="97.5" y="45.0" width="33.0" height="3.0"
        fill="black" stroke="black" stroke-width="0.1"/>
        
        <rect x="135.0" y="45.0" width="10.5" height="3.0"
        fill="black" stroke="black" stroke-width="0.1"/>
        
        <rect x="157.5" y="45.0" width="10.5" height="3.0"
        fill="black" stroke="black" stroke-width="0.1"/>
        
        <rect x="60.0" y="52.5" width="25.5" height="3.0"
        fill="black" stroke="black" stroke-width="0.1"/>
        
        <rect x="90.0" y="52.5" width="21.75" height="3.0"
        fill="black" stroke="black" stroke-width="0.1"/>
        
        <rect x="116.25" y="52.5" width="36.75" height="3.0"
        fill="black" stroke="black" stroke-width="0.1"/>
        
        <rect x="22.5" y="60.0" width="18.0" height="3.0"
        fill="black" stroke="black" stroke-width="0.1"/>
        
        <rect x="165.0" y="63.75" width="18.0" height="3.0"
        fill="black" stroke="black" stroke-width="0.1"/>
        
        <rect x="195.0" y="63.75" width="10.5" height="3.0"
        fill="black" stroke="black" stroke-width="0.1"/>
        
        <rect x="22.5" y="67.5" width="25.5" height="3.0"
        fill="black" stroke="black" stroke-width="0.1"/>
        
        <rect x="172.5" y="71.25" width="25.5" height="3.0"
        fill="black" stroke="black" stroke-width="0.1"/>
        
        <rect x="0.0" y="75.0" width="48.0" height="3.0"
        fill="black" stroke="black" stroke-width="0.1"/>
        
        <rect x="165.0" y="78.75" width="40.5" height="3.0"
        fill="black" stroke="black" stroke-width="0.1"/>
        
        <rect x="7.5" y="82.5" width="10.5" height="3.0"
        fill="black" stroke="black" stroke-width="0.1"/>
        
        <rect x="30.0" y="82.5" width="18.0" height="3.0"
        fill="black" stroke="black" stroke-width="0.1"/>
        
        <rect x="172.5" y="86.25" width="18.0" height="3.0"
        fill="black" stroke="black" stroke-width="0.1"/>
        
        <rect x="45.0" y="90.0" width="18.0" height="3.0"
        fill="black" stroke="black" stroke-width="0.1"/>
        
        <rect x="67.5" y="90.0" width="44.25" height="3.0"
        fill="black" stroke="black" stroke-width="0.1"/>
        
        <rect x="116.25" y="90.0" width="29.25" height="3.0"
        fill="black" stroke="black" stroke-width="0.1"/>
        
        <rect x="172.5" y="93.75" width="10.5" height="3.0"
        fill="black" stroke="black" stroke-width="0.1"/>
        
        <rect x="37.5" y="97.5" width="18.0" height="3.0"
        fill="black" stroke="black" stroke-width="0.1"/>
        
        <rect x="82.5" y="97.5" width="18.0" height="3.0"
        fill="black" stroke="black" stroke-width="0.1"/>
        
        <rect x="112.5" y="97.5" width="25.5" height="3.0"
        fill="black" stroke="black" stroke-width="0.1"/>
        
        <rect x="157.5" y="97.5" width="10.5" height="3.0"
        fill="black" stroke="black" stroke-width="0.1"/>
        
        <rect x="30.0" y="105.0" width="18.0" height="3.0"
        fill="black" stroke="black" stroke-width="0.1"/>
        
        <rect x="75.0" y="105.0" width="18.0" height="3.0"
        fill="black" stroke="black" stroke-width="0.1"/>
        
        <rect x="120.0" y="105.0" width="18.0" height="3.0"
        fill="black" stroke="black" stroke-width="0.1"/>
        
        <rect x="165.0" y="105.0" width="10.5" height="3.0"
        fill="black" stroke="black" stroke-width="0.1"/>
        
        <rect x="22.5" y="112.5" width="33.0" height="3.0"
        fill="black" stroke="black" stroke-width="0.1"/>
        
        <rect x="67.5" y="112.5" width="18.0" height="3.0"
        fill="black" stroke="black" stroke-width="0.1"/>
        
        <rect x="112.5" y="112.5" width="33.0" height="3.0"
        fill="black" stroke="black" stroke-width="0.1"/>
        
        <rect x="157.5" y="112.5" width="25.5" height="3.0"
        fill="black" stroke="black" stroke-width="0.1"/>
        
        <rect x="22.5" y="120.0" width="70.5" height="3.0"
        fill="black" stroke="black" stroke-width="0.1"/>
        
        <rect x="105.0" y="120.0" width="85.5" height="3.0"
        fill="black" stroke="black" stroke-width="0.1"/>
        
        <rect x="15.0" y="127.5" width="93.0" height="3.0"
        fill="black" stroke="black" stroke-width="0.1"/>
        
        <rect x="112.5" y="127.5" width="33.0" height="3.0"
        fill="black" stroke="black" stroke-width="0.1"/>
        
        <rect x="157.5" y="127.5" width="40.5" height="3.0"
        fill="black" stroke="black" stroke-width="0.1"/>
        
        <rect x="7.5" y="135.0" width="48.0" height="3.0"
        fill="black" stroke="black" stroke-width="0.1"/>
        
        <rect x="60.0" y="135.0" width="33.0" height="3.0"
        fill="black" stroke="black" stroke-width="0.1"/>
        
        <rect x="105.0" y="135.0" width="48.0" height="3.0"
        fill="black" stroke="black" stroke-width="0.1"/>
        
        <rect x="157.5" y="135.0" width="48.0" height="3.0"
        fill="black" stroke="black" stroke-width="0.1"/>
        
        <rect x="7.5" y="7.5" width="3.0" height="63.0"
        fill="black" stroke="black" stroke-width="0.1"/>
        
        <rect x="7.5" y="90.0" width="3.0" height="48.0"
        fill="black" stroke="black" stroke-width="0.1"/>
        
        <rect x="15.0" y="15.0" width="3.0" height="63.0"
        fill="black" stroke="black" stroke-width="0.1"/>
        
        <rect x="15.0" y="82.5" width="3.0" height="48.0"
        fill="black" stroke="black" stroke-width="0.1"/>
        
        <rect x="22.5" y="22.5" width="3.0" height="40.5"
        fill="black" stroke="black" stroke-width="0.1"/>
        
        <rect x="22.5" y="75.0" width="3.0" height="40.5"
        fill="black" stroke="black" stroke-width="0.1"/>
        
        <rect x="30.0" y="30.0" width="3.0" height="25.5"
        fill="black" stroke="black" stroke-width="0.1"/>
        
        <rect x="30.0" y="82.5" width="3.0" height="25.5"
        fill="black" stroke="black" stroke-width="0.1"/>
        
        <rect x="37.5" y="37.5" width="3.0" height="25.5"
        fill="black" stroke="black" stroke-width="0.1"/>
        
        <rect x="37.5" y="90.0" width="3.0" height="10.5"
        fill="black" stroke="black" stroke-width="0.1"/>
        
        <rect x="45.0" y="45.0" width="3.0" height="25.5"
        fill="black" stroke="black" stroke-width="0.1"/>
        
        <rect x="45.0" y="82.5" width="3.0" height="10.5"
        fill="black" stroke="black" stroke-width="0.1"/>
        
        <rect x="52.5" y="52.5" width="3.0" height="33.0"
        fill="black" stroke="black" stroke-width="0.1"/>
        
        <rect x="52.5" y="97.5" width="3.0" height="18.0"
        fill="black" stroke="black" stroke-width="0.1"/>
        
        <rect x="60.0" y="7.5" width="3.0" height="18.0"
        fill="black" stroke="black" stroke-width="0.1"/>
        
        <rect x="60.0" y="37.5" width="3.0" height="10.5"
        fill="black" stroke="black" stroke-width="0.1"/>
        
        <rect x="60.0" y="90.0" width="3.0" height="33.0"
        fill="black" stroke="black" stroke-width="0.1"/>
        
        <rect x="60.0" y="135.0" width="3.0" height="10.5"
        fill="black" stroke="black" stroke-width="0.1"/>
        
        <rect x="67.5" y="15.0" width="3.0" height="10.5"
        fill="black" stroke="black" stroke-width="0.1"/>
        
        <rect x="67.5" y="30.0" width="3.0" height="10.5"
        fill="black" stroke="black" stroke-width="0.1"/>
        
        <rect x="67.5" y="97.5" width="3.0" height="18.0"
        fill="black" stroke="black" stroke-width="0.1"/>
        
        <rect x="75.0" y="37.5" width="3.0" height="10.5"
        fill="black" stroke="black" stroke-width="0.1"/>
        
        <rect x="75.0" y="90.0" width="3.0" height="18.0"
        fill="black" stroke="black" stroke-width="0.1"/>
        
        <rect x="90.0" y="105.0" width="3.0" height="18.0"
        fill="black" stroke="black" stroke-width="0.1"/>
        
        <rect x="97.5" y="7.5" width="3.0" height="18.0"
        fill="black" stroke="black" stroke-width="0.1"/>
        
        <rect x="97.5" y="37.5" width="3.0" height="10.5"
        fill="black" stroke="black" stroke-width="0.1"/>
        
        <rect x="97.5" y="97.5" width="3.0" height="48.0"
        fill="black" stroke="black" stroke-width="0.1"/>
        
        <rect x="105.0" y="0.0" width="3.0" height="40.5"
        fill="black" stroke="black" stroke-width="0.1"/>
        
        <rect x="105.0" y="90.0" width="3.0" height="33.0"
        fill="black" stroke="black" stroke-width="0.1"/>
        
        <rect x="112.5" y="7.5" width="3.0" height="40.5"
        fill="black" stroke="black" stroke-width="0.1"/>
        
        <rect x="112.5" y="97.5" width="3.0" height="18.0"
        fill="black" stroke="black" stroke-width="0.1"/>
        
        <rect x="120.0" y="22.5" width="3.0" height="18.0"
        fill="black" stroke="black" stroke-width="0.1"/>
        
        <rect x="142.5" y="30.0" width="3.0" height="18.0"
        fill="black" stroke="black" stroke-width="0.1"/>
        
        <rect x="142.5" y="97.5" width="3.0" height="18.0"
        fill="black" stroke="black" stroke-width="0.1"/>
        
        <rect x="150.0" y="22.5" width="3.0" height="33.0"
        fill="black" stroke="black" stroke-width="0.1"/>
        
        <rect x="150.0" y="90.0" width="3.0" height="40.5"
        fill="black" stroke="black" stroke-width="0.1"/>
        
        <rect x="157.5" y="15.0" width="3.0" height="33.0"
        fill="black" stroke="black" stroke-width="0.1"/>
        
        <rect x="157.5" y="52.5" width="3.0" height="40.5"
        fill="black" stroke="black" stroke-width="0.1"/>
        
        <rect x="157.5" y="97.5" width="3.0" height="18.0"
        fill="black" stroke="black" stroke-width="0.1"/>
        
        <rect x="165.0" y="22.5" width="3.0" height="18.0"
        fill="black" stroke="black" stroke-width="0.1"/>
        
        <rect x="165.0" y="45.0" width="3.0" height="55.5"
        fill="black" stroke="black" stroke-width="0.1"/>
        
        <rect x="172.5" y="37.5" width="3.0" height="21.75"
        fill="black" stroke="black" stroke-width="0.1"/>
        
        <rect x="172.5" y="86.25" width="3.0" height="21.75"
        fill="black" stroke="black" stroke-width="0.1"/>
        
        <rect x="180.0" y="30.0" width="3.0" height="36.75"
        fill="black" stroke="black" stroke-width="0.1"/>
        
        <rect x="180.0" y="93.75" width="3.0" height="21.75"
        fill="black" stroke="black" stroke-width="0.1"/>
        
        <rect x="187.5" y="22.5" width="3.0" height="44.25"
        fill="black" stroke="black" stroke-width="0.1"/>
        
        <rect x="187.5" y="86.25" width="3.0" height="36.75"
        fill="black" stroke="black" stroke-width="0.1"/>
        
        <rect x="195.0" y="15.0" width="3.0" height="115.5"
        fill="black" stroke="black" stroke-width="0.1"/>
        
        <rect x="202.5" y="7.5" width="3.0" height="51.75"
        fill="black" stroke="black" stroke-width="0.1"/>
        
        <rect x="202.5" y="86.25" width="3.0" height="51.75"
        fill="black" stroke="black" stroke-width="0.1"/>
        
        <rect x="60.0" y="60.0" width="3.0" height="6.75"
        fill="black" stroke="black" stroke-width="0.1"/>
        
        <rect x="60.0" y="78.75" width="3.0" height="6.75"
        fill="black" stroke="black" stroke-width="0.1"/>
        
        <rect x="150.0" y="60.0" width="3.0" height="6.75"
        fill="black" stroke="black" stroke-width="0.1"/>
        
        <rect x="150.0" y="78.75" width="3.0" height="6.75"
        fill="black" stroke="black" stroke-width="0.1"/>
        
        </g>
        
</svg>

